# xmcd
#
# Track frame offsets: 
#        150
#        16145
#        32517
#        46295
#        60417
#        71260
#        82535
#        94170
#        105487
#        116752
#
# Disc length: 1755 seconds
#
# Revision: 0
# Processed by: cddbd v1.5.2PL0 Copyright (c) Steve Scherf et al.
# Submitted via: ExactAudioCopy v0.95b4
#
DISCID=6806d90a
DTITLE=George Jones - Hallelujah Weekend
DYEAR=1990
DGENRE=
TTITLE0=Mama's Family Bible
TTITLE1=A Picture from Life's Other Side
TTITLE2=Me and Jesus
TTITLE3=We oughta be ashamed
TTITLE4=The Devil is Gathering Firewood
TTITLE5=Would They Love Him Down In Shreveport
TTITLE6=Swoop Down Sweet Jesus
TTITLE7=The Battle For Daddy's Soul
TTITLE8=Hallelujah Weekend
TTITLE9=Jesus Saves Today
EXTD=
EXTT0=
EXTT1=
EXTT2=
EXTT3=
EXTT4=
EXTT5=
EXTT6=
EXTT7=
EXTT8=
EXTT9=
PLAYORDER=
